<svg xmlns="http://www.w3.org/2000/svg" width="1256" height="300" fill="none" viewBox="0 0 1256 300">
  <path fill="#0F172A" d="m349.024 113.248 30.976 80c1.28 2.987 2.603 5.077 3.968 6.272 1.451 1.195 2.731 1.835 3.84 1.92V204c-2.731-.171-6.016-.256-9.856-.256a509.168 509.168 0 0 0-11.52-.128c-4.096 0-7.979.043-11.648.128-3.669 0-6.613.085-8.832.256v-2.56c4.352-.171 7.125-.896 8.32-2.176 1.195-1.365.939-4.224-.768-8.576l-21.248-58.112 2.56-3.84-18.688 48.256c-1.963 5.12-3.157 9.259-3.584 12.416-.427 3.157-.213 5.589.64 7.296.853 1.707 2.176 2.901 3.968 3.584 1.877.683 4.096 1.067 6.656 1.152V204c-2.987-.171-5.76-.256-8.32-.256a235.958 235.958 0 0 0-8.064-.128c-1.707 0-3.456.043-5.248.128-1.707 0-3.2.085-4.48.256v-2.56c1.877-.341 3.755-1.536 5.632-3.584 1.963-2.048 3.883-5.589 5.76-10.624l28.8-73.984c1.707.171 3.541.256 5.504.256 2.048 0 3.925-.085 5.632-.256Zm6.656 53.888v2.56h-38.144l1.28-2.56h36.864Zm62.168-30.72v77.824c0 4.096.981 6.827 2.944 8.192 2.048 1.365 4.821 2.048 8.32 2.048v2.688a2108.23 2108.23 0 0 1-9.6-.384 624.096 624.096 0 0 0-12.928-.128c-3.243 0-6.485.043-9.728.128-3.157.171-5.547.299-7.168.384v-2.688c2.731 0 4.651-.64 5.76-1.92 1.109-1.195 1.664-3.541 1.664-7.04v-63.744c0-3.84-.555-6.656-1.664-8.448-1.109-1.877-3.115-2.816-6.016-2.816v-2.688c2.731.256 5.376.384 7.936.384 3.925 0 7.595-.128 11.008-.384 3.413-.341 6.571-.811 9.472-1.408Zm19.584-.512c4.352 0 8.192 1.195 11.52 3.584 3.413 2.304 6.101 5.845 8.064 10.624 2.048 4.693 3.072 10.624 3.072 17.792 0 6.741-.768 12.501-2.304 17.28-1.451 4.779-3.541 8.704-6.272 11.776-2.645 3.072-5.803 5.333-9.472 6.784-3.584 1.365-7.467 2.048-11.648 2.048-3.157 0-6.101-.469-8.832-1.408-2.645-.853-4.736-2.261-6.272-4.224l1.28-1.664c.768 1.195 1.835 2.091 3.2 2.688 1.365.597 2.816.896 4.352.896 3.499 0 6.272-1.195 8.32-3.584 2.133-2.475 3.669-6.059 4.608-10.752.939-4.693 1.408-10.411 1.408-17.152 0-7.424-.427-13.184-1.28-17.28-.853-4.181-2.005-7.125-3.456-8.832-1.451-1.707-3.157-2.56-5.12-2.56-2.731 0-5.205 1.067-7.424 3.2-2.133 2.048-3.328 4.864-3.584 8.448l-.256-5.376c1.792-4.096 4.437-7.168 7.936-9.216 3.499-2.048 7.552-3.072 12.16-3.072Zm58.041.512v77.824c0 4.096.981 6.827 2.944 8.192 2.048 1.365 4.821 2.048 8.32 2.048v2.688a2108.23 2108.23 0 0 1-9.6-.384 624.096 624.096 0 0 0-12.928-.128c-3.243 0-6.485.043-9.728.128-3.157.171-5.547.299-7.168.384v-2.688c2.731 0 4.651-.64 5.76-1.92 1.109-1.195 1.664-3.541 1.664-7.04v-63.744c0-3.84-.555-6.656-1.664-8.448-1.109-1.877-3.115-2.816-6.016-2.816v-2.688c2.731.256 5.376.384 7.936.384 3.925 0 7.595-.128 11.008-.384 3.413-.341 6.571-.811 9.472-1.408Zm19.584-.512c4.352 0 8.192 1.195 11.52 3.584 3.413 2.304 6.101 5.845 8.064 10.624 2.048 4.693 3.072 10.624 3.072 17.792 0 6.741-.768 12.501-2.304 17.28-1.451 4.779-3.541 8.704-6.272 11.776-2.645 3.072-5.803 5.333-9.472 6.784-3.584 1.365-7.467 2.048-11.648 2.048-3.157 0-6.101-.469-8.832-1.408-2.645-.853-4.736-2.261-6.272-4.224l1.28-1.664c.768 1.195 1.835 2.091 3.2 2.688 1.365.597 2.816.896 4.352.896 3.499 0 6.272-1.195 8.32-3.584 2.133-2.475 3.669-6.059 4.608-10.752.939-4.693 1.408-10.411 1.408-17.152 0-7.424-.427-13.184-1.28-17.28-.853-4.181-2.005-7.125-3.456-8.832-1.451-1.707-3.157-2.56-5.12-2.56-2.731 0-5.205 1.067-7.424 3.2-2.133 2.048-3.328 4.864-3.584 8.448l-.256-5.376c1.792-4.096 4.437-7.168 7.936-9.216 3.499-2.048 7.552-3.072 12.16-3.072Zm116.335-22.528v2.432c-2.816.683-5.888 2.005-9.216 3.968-3.328 1.877-6.869 4.949-10.624 9.216l-23.68 27.648 8.832-12.032 30.336 49.024c1.195 1.877 2.389 3.413 3.584 4.608 1.28 1.195 2.944 2.261 4.992 3.2V204a210.305 210.305 0 0 0-10.752-.256c-3.84-.085-7.424-.128-10.752-.128-1.877 0-4.181.043-6.912.128-2.731 0-6.187.085-10.368.256v-2.56c3.755-.171 5.973-.64 6.656-1.408.683-.768.384-2.219-.896-4.352l-18.688-30.72c-1.024-1.792-1.963-3.115-2.816-3.968-.768-.853-1.536-1.451-2.304-1.792-.768-.427-1.792-.683-3.072-.768v-2.56c3.755-.171 7.211-1.323 10.368-3.456s6.741-5.547 10.752-10.24l6.016-7.04c3.413-3.925 5.291-7.296 5.632-10.112.427-2.816-.299-5.035-2.176-6.656-1.792-1.621-4.352-2.475-7.68-2.56v-2.432c2.219.085 4.352.171 6.4.256 2.048 0 4.139.043 6.272.128h7.552c2.645 0 4.992-.043 7.04-.128s3.883-.171 5.504-.256Zm-45.568 0v2.56c-2.645.085-4.651.427-6.016 1.024-1.365.512-2.261 1.536-2.688 3.072-.427 1.451-.64 3.755-.64 6.912v63.488c0 3.072.213 5.376.64 6.912.512 1.536 1.408 2.56 2.688 3.072 1.365.512 3.371.853 6.016 1.024V204c-2.389-.171-5.461-.256-9.216-.256a480.82 480.82 0 0 0-11.136-.128c-4.352 0-8.448.043-12.288.128-3.84 0-6.912.085-9.216.256v-2.56c2.645-.171 4.608-.512 5.888-1.024 1.365-.512 2.261-1.536 2.688-3.072.512-1.536.768-3.84.768-6.912v-63.488c0-3.157-.256-5.461-.768-6.912-.427-1.536-1.323-2.56-2.688-3.072-1.28-.597-3.243-.939-5.888-1.024v-2.56c2.304.085 5.376.171 9.216.256 3.84.085 7.936.128 12.288.128 3.755 0 7.467-.043 11.136-.128 3.755-.085 6.827-.171 9.216-.256Zm68.272-9.088c4.011 0 7.125.896 9.344 2.688 2.304 1.792 3.456 4.395 3.456 7.808 0 3.413-1.152 6.016-3.456 7.808-2.219 1.792-5.333 2.688-9.344 2.688-4.011 0-7.168-.896-9.472-2.688-2.219-1.792-3.328-4.395-3.328-7.808 0-3.413 1.109-6.016 3.328-7.808 2.304-1.792 5.461-2.688 9.472-2.688Zm11.264 32v55.808c0 3.584.555 6.016 1.664 7.296 1.195 1.28 3.2 1.92 6.016 1.92V204c-1.707-.085-4.224-.171-7.552-.256a197.06 197.06 0 0 0-10.112-.256c-3.413 0-6.912.085-10.496.256-3.499.085-6.144.171-7.936.256v-2.688c2.816 0 4.779-.64 5.888-1.92 1.195-1.28 1.792-3.712 1.792-7.296v-40.448c0-3.84-.555-6.656-1.664-8.448-1.109-1.877-3.115-2.816-6.016-2.816v-2.688c2.731.256 5.376.384 7.936.384 3.84 0 7.467-.128 10.88-.384 3.499-.341 6.699-.811 9.6-1.408Zm46.495-.384c3.584 0 6.784.384 9.6 1.152 2.816.683 5.12 1.579 6.912 2.688 2.219 1.365 4.011 3.115 5.376 5.248 1.365 2.133 2.048 4.608 2.048 7.424 0 3.243-1.067 5.973-3.2 8.192-2.133 2.133-4.821 3.2-8.064 3.2-3.328 0-5.973-.981-7.936-2.944-1.877-1.963-2.816-4.48-2.816-7.552 0-2.987.939-5.504 2.816-7.552 1.877-2.048 4.096-3.413 6.656-4.096-.683-.683-1.579-1.237-2.688-1.664-1.024-.427-2.261-.64-3.712-.64-2.901 0-5.333.853-7.296 2.56-1.963 1.621-3.584 3.883-4.864 6.784-1.195 2.816-2.091 6.016-2.688 9.6a75.079 75.079 0 0 0-.768 10.88c0 6.315.811 11.264 2.432 14.848 1.707 3.499 3.797 5.973 6.272 7.424 2.56 1.365 5.163 2.048 7.808 2.048 1.365 0 2.944-.213 4.736-.64 1.792-.427 3.669-1.323 5.632-2.688 2.048-1.365 3.968-3.413 5.76-6.144l2.176.768c-.939 3.328-2.517 6.613-4.736 9.856-2.219 3.243-5.077 5.931-8.576 8.064-3.499 2.048-7.765 3.072-12.8 3.072-5.632 0-10.752-1.152-15.36-3.456-4.523-2.304-8.149-6.016-10.88-11.136-2.731-5.12-4.096-11.819-4.096-20.096 0-8.021 1.408-14.592 4.224-19.712 2.816-5.205 6.656-9.088 11.52-11.648 4.949-2.56 10.453-3.84 16.512-3.84Zm58.24-32v88.192c0 3.584.555 6.016 1.664 7.296 1.109 1.28 3.029 1.92 5.76 1.92V204c-1.621-.085-4.053-.171-7.296-.256a189.669 189.669 0 0 0-9.984-.256c-3.499 0-7.04.085-10.624.256-3.499.085-6.144.171-7.936.256v-2.688c2.816 0 4.779-.64 5.888-1.92 1.195-1.28 1.792-3.712 1.792-7.296v-72.832c0-3.84-.555-6.656-1.664-8.448-1.024-1.877-3.029-2.816-6.016-2.816v-2.688c2.731.256 5.376.384 7.936.384 3.925 0 7.595-.128 11.008-.384 3.413-.341 6.571-.811 9.472-1.408Zm42.24 33.792v2.56c-2.901.683-5.803 2.005-8.704 3.968-2.901 1.877-5.845 4.309-8.832 7.296l-7.168 7.296 1.024-2.048 21.248 37.888a53.52 53.52 0 0 0 2.56 3.968c.939 1.195 2.048 2.091 3.328 2.688V204c-1.28-.085-3.328-.171-6.144-.256a133.118 133.118 0 0 0-8.32-.256c-3.243 0-6.528.085-9.856.256-3.243.085-5.717.171-7.424.256v-2.688c1.707 0 2.859-.384 3.456-1.152.597-.768.512-1.835-.256-3.2l-11.904-23.296c-.768-1.451-1.621-2.389-2.56-2.816-.853-.427-1.92-.64-3.2-.64v-2.432c1.451-.085 2.731-.299 3.84-.64 1.195-.341 2.304-.981 3.328-1.92l9.728-9.344c2.987-2.816 4.48-5.333 4.48-7.552.085-2.304-.853-4.181-2.816-5.632-1.877-1.451-4.309-2.261-7.296-2.432v-2.56c2.389.085 4.992.171 7.808.256 2.901.085 5.376.128 7.424.128h5.632a151.61 151.61 0 0 1 6.016-.128c1.963-.085 3.499-.171 4.608-.256Zm32.343-1.792c3.755 0 6.997.427 9.728 1.28s4.736 1.664 6.016 2.432c2.987 1.877 4.779.683 5.376-3.584h2.688c-.171 2.475-.299 5.461-.384 8.96-.085 3.413-.128 8.021-.128 13.824h-2.688c-.341-3.157-1.109-6.272-2.304-9.344-1.109-3.072-2.773-5.589-4.992-7.552-2.219-2.048-5.12-3.072-8.704-3.072-2.304 0-4.267.683-5.888 2.048-1.536 1.365-2.304 3.243-2.304 5.632 0 2.56.768 4.821 2.304 6.784 1.536 1.963 3.499 3.84 5.888 5.632a145.525 145.525 0 0 1 7.424 5.76c2.731 2.048 5.163 4.139 7.296 6.272 2.219 2.048 3.968 4.309 5.248 6.784 1.365 2.389 2.048 5.291 2.048 8.704 0 3.84-1.152 7.211-3.456 10.112-2.304 2.901-5.333 5.163-9.088 6.784-3.755 1.621-7.936 2.432-12.544 2.432-2.816 0-5.291-.299-7.424-.896-2.048-.512-3.755-1.195-5.12-2.048a92.475 92.475 0 0 0-3.456-1.536 11.974 11.974 0 0 0-2.816-.896c-.853-.085-1.579.299-2.176 1.152-.597.853-1.067 1.963-1.408 3.328h-2.688c.171-2.731.299-6.059.384-9.984.085-3.925.128-9.131.128-15.616h2.688c.512 4.608 1.451 8.661 2.816 12.16 1.451 3.499 3.371 6.272 5.76 8.32 2.389 1.963 5.205 2.944 8.448 2.944 1.451 0 2.773-.256 3.968-.768a7.203 7.203 0 0 0 3.072-2.688c.853-1.195 1.28-2.731 1.28-4.608 0-3.755-1.195-6.869-3.584-9.344-2.389-2.56-5.333-5.333-8.832-8.32a215.034 215.034 0 0 1-7.68-6.784c-2.304-2.219-4.224-4.651-5.76-7.296-1.451-2.645-2.176-5.632-2.176-8.96 0-3.84 1.067-7.083 3.2-9.728 2.219-2.731 5.077-4.779 8.576-6.144 3.499-1.451 7.253-2.176 11.264-2.176Zm61.542-19.072v20.864h13.824v2.56H906.22v52.352c0 2.133.384 3.669 1.152 4.608.768.853 1.92 1.28 3.456 1.28 1.28 0 2.603-.427 3.968-1.28 1.451-.853 2.773-2.304 3.968-4.352l2.048 1.28c-1.621 3.499-3.883 6.315-6.784 8.448-2.816 2.133-6.528 3.2-11.136 3.2-2.816 0-5.333-.384-7.552-1.152-2.133-.683-3.925-1.749-5.376-3.2-1.877-1.877-3.115-4.181-3.712-6.912-.512-2.816-.768-6.443-.768-10.88v-43.392h-10.24v-2.56h10.24v-16c4.011 0 7.68-.384 11.008-1.152a36.366 36.366 0 0 0 9.728-3.712Zm34.507 88.064c-3.925 0-7.168-.725-9.728-2.176-2.56-1.536-4.437-3.541-5.632-6.016-1.195-2.475-1.792-5.12-1.792-7.936 0-3.584.811-6.528 2.432-8.832 1.707-2.304 3.883-4.139 6.528-5.504a47.973 47.973 0 0 1 8.32-3.584c2.901-.939 5.675-1.835 8.32-2.688 2.645-.939 4.779-2.005 6.4-3.2 1.621-1.28 2.432-2.901 2.432-4.864v-10.624c0-1.877-.299-3.627-.896-5.248-.512-1.707-1.493-3.072-2.944-4.096-1.365-1.109-3.285-1.664-5.76-1.664-1.536 0-3.029.213-4.48.64a10.418 10.418 0 0 0-3.84 2.048c2.731.939 4.736 2.347 6.016 4.224 1.365 1.877 2.048 3.968 2.048 6.272 0 3.157-1.109 5.675-3.328 7.552-2.133 1.792-4.693 2.688-7.68 2.688-3.243 0-5.76-1.024-7.552-3.072-1.707-2.048-2.56-4.523-2.56-7.424 0-2.56.64-4.693 1.92-6.4 1.28-1.792 3.157-3.413 5.632-4.864 2.475-1.451 5.461-2.517 8.96-3.2 3.499-.683 7.211-1.024 11.136-1.024 4.011 0 7.68.427 11.008 1.28 3.413.768 6.315 2.347 8.704 4.736 1.877 1.963 3.072 4.352 3.584 7.168s.768 6.4.768 10.752v34.56c0 2.133.171 3.627.512 4.48.427.768 1.067 1.152 1.92 1.152.768 0 1.493-.213 2.176-.64a29.402 29.402 0 0 0 2.048-1.408l1.408 2.176c-1.877 1.536-4.096 2.731-6.656 3.584-2.56.768-5.333 1.152-8.32 1.152-3.413 0-6.101-.427-8.064-1.28-1.877-.939-3.243-2.176-4.096-3.712-.768-1.536-1.195-3.243-1.28-5.12-1.877 3.072-4.224 5.547-7.04 7.424-2.816 1.792-6.357 2.688-10.624 2.688Zm10.624-9.216c1.365 0 2.56-.256 3.584-.768 1.109-.597 2.133-1.579 3.072-2.944v-26.624c-.683 1.195-1.621 2.347-2.816 3.456a152.308 152.308 0 0 1-3.584 3.2 34.993 34.993 0 0 0-3.712 3.456c-1.109 1.28-2.048 2.816-2.816 4.608-.683 1.707-1.024 3.797-1.024 6.272 0 3.328.683 5.717 2.048 7.168 1.365 1.451 3.115 2.176 5.248 2.176Zm84.409-59.776c2.9 0 5.2.64 6.91 1.92 1.7 1.195 2.94 2.773 3.71 4.736.77 1.877 1.15 3.755 1.15 5.632 0 3.499-1.02 6.315-3.07 8.448-1.96 2.133-4.57 3.2-7.81 3.2-3.41 0-6.01-.768-7.81-2.304-1.79-1.621-2.68-3.755-2.68-6.4 0-2.645.55-4.821 1.66-6.528a17.6 17.6 0 0 1 4.35-4.352c-1.28-.171-2.52 0-3.71.512-1.37.341-2.65.981-3.84 1.92a14.293 14.293 0 0 0-3.07 3.328 17.3 17.3 0 0 0-2.05 4.224 15.679 15.679 0 0 0-.64 4.48v36.096c0 4.096.9 6.869 2.69 8.32 1.88 1.451 4.82 2.176 8.83 2.176V204c-1.96-.085-4.86-.171-8.7-.256-3.84-.171-7.81-.256-11.91-.256-3.67 0-7.38.085-11.134.256-3.669.085-6.4.171-8.192.256v-2.688c2.816 0 4.779-.64 5.888-1.92 1.195-1.28 1.792-3.712 1.792-7.296v-40.448c0-3.84-.555-6.656-1.664-8.448-1.109-1.877-3.115-2.816-6.016-2.816v-2.688c2.731.256 5.376.384 7.936.384 3.84 0 7.47-.128 10.88-.384 3.5-.341 6.7-.811 9.6-1.408v10.496c1.02-2.219 2.35-4.139 3.97-5.76a17.873 17.873 0 0 1 5.76-3.712c2.22-.939 4.61-1.408 7.17-1.408Zm43.09-19.072v20.864h13.82v2.56h-13.82v52.352c0 2.133.38 3.669 1.15 4.608.77.853 1.92 1.28 3.45 1.28 1.28 0 2.61-.427 3.97-1.28 1.45-.853 2.77-2.304 3.97-4.352l2.05 1.28c-1.62 3.499-3.89 6.315-6.79 8.448-2.81 2.133-6.52 3.2-11.13 3.2-2.82 0-5.34-.384-7.55-1.152-2.14-.683-3.93-1.749-5.38-3.2-1.88-1.877-3.12-4.181-3.71-6.912-.51-2.816-.77-6.443-.77-10.88v-43.392h-10.24v-2.56h10.24v-16c4.01 0 7.68-.384 11.01-1.152a36.52 36.52 0 0 0 9.73-3.712Zm50.01 19.072c7.5 0 13.39 2.219 17.66 6.656 4.27 4.437 6.4 11.733 6.4 21.888h-41.09l-.13-2.432h23.81c.17-4.181 0-8.021-.51-11.52-.51-3.584-1.37-6.443-2.56-8.576-1.11-2.133-2.6-3.2-4.48-3.2-2.56 0-4.74 1.835-6.53 5.504-1.79 3.669-2.9 9.899-3.33 18.688l.52.896c-.18.939-.26 1.92-.26 2.944v3.072c0 5.888.77 10.581 2.3 14.08 1.62 3.499 3.63 5.973 6.02 7.424 2.39 1.451 4.86 2.176 7.42 2.176 1.45 0 3.08-.213 4.87-.64 1.79-.427 3.67-1.323 5.63-2.688 1.96-1.365 3.84-3.371 5.63-6.016l2.18.768c-.94 3.328-2.56 6.613-4.87 9.856-2.22 3.157-5.07 5.803-8.57 7.936-3.5 2.048-7.73 3.072-12.67 3.072-5.64 0-10.67-1.152-15.11-3.456-4.44-2.389-7.98-6.101-10.62-11.136-2.56-5.12-3.84-11.776-3.84-19.968 0-8.107 1.41-14.763 4.22-19.968 2.82-5.205 6.66-9.045 11.52-11.52 4.87-2.56 10.33-3.84 16.39-3.84Zm75.27 0c2.9 0 5.21.64 6.91 1.92 1.71 1.195 2.95 2.773 3.72 4.736.76 1.877 1.15 3.755 1.15 5.632 0 3.499-1.03 6.315-3.07 8.448-1.97 2.133-4.57 3.2-7.81 3.2-3.42 0-6.02-.768-7.81-2.304-1.79-1.621-2.69-3.755-2.69-6.4 0-2.645.56-4.821 1.67-6.528a17.432 17.432 0 0 1 4.35-4.352c-1.28-.171-2.52 0-3.71.512-1.37.341-2.65.981-3.84 1.92-1.2.939-2.22 2.048-3.08 3.328a17.643 17.643 0 0 0-2.04 4.224 15.679 15.679 0 0 0-.64 4.48v36.096c0 4.096.89 6.869 2.68 8.32 1.88 1.451 4.82 2.176 8.84 2.176V204c-1.97-.085-4.87-.171-8.71-.256a267.78 267.78 0 0 0-11.9-.256c-3.67 0-7.38.085-11.14.256-3.67.085-6.4.171-8.19.256v-2.688c2.82 0 4.78-.64 5.89-1.92 1.19-1.28 1.79-3.712 1.79-7.296v-40.448c0-3.84-.56-6.656-1.66-8.448-1.11-1.877-3.12-2.816-6.02-2.816v-2.688c2.73.256 5.38.384 7.94.384 3.84 0 7.46-.128 10.88-.384 3.49-.341 6.69-.811 9.6-1.408v10.496c1.02-2.219 2.34-4.139 3.96-5.76a18.09 18.09 0 0 1 5.76-3.712c2.22-.939 4.61-1.408 7.17-1.408Zm-985.354 14.508-53.013-30.725 26.725-64.137a12.537 12.537 0 0 0 1.288-5.55c0-6.9-5.563-12.5-12.463-12.5-3.112.05-5.712 1.038-7.775 2.675-.412.325-.662.525-.875.75l-93.75 88.75a12.524 12.524 0 0 0-3.825 10.525 12.544 12.544 0 0 0 6.138 9.375l53.025 30.75-27.038 64.875c-2.287 5.45-.425 11.75 4.425 15.1a12.615 12.615 0 0 0 7.113 2.2c3.1 0 6.2-1.163 8.6-3.425l93.75-88.775a12.528 12.528 0 0 0 3.825-10.525 12.547 12.547 0 0 0-6.15-9.363Z"/>
</svg>
