<svg xmlns="http://www.w3.org/2000/svg" fill="none" viewBox="0 0 14 14" height="48" width="48" style="background-color: #ffffff"><g transform="matrix(0.9,0,0,0.9,0.7010240961690837,0.6986331738114018)"><path fill="#000000" fill-rule="evenodd" d="M6.54699 10.2633L3.73669 7.45301C4.04566 6.93561 4.3535 6.40063 4.65915 5.86944L4.65916 5.86942C5.67537 4.10337 6.66746 2.37925 7.59687 1.48246C10.1208 -1.04151 13.578 0.421966 13.578 0.421966C13.578 0.421966 15.0415 3.87916 12.5175 6.40312C11.6281 7.32489 9.93112 8.30213 8.17857 9.31136L8.17855 9.31136L8.1785 9.31139L8.17846 9.31142C7.63244 9.62584 7.08104 9.94338 6.54699 10.2633ZM8.68756 3.73075C8.68756 2.8572 9.39571 2.14905 10.2693 2.14905C11.1428 2.14905 11.851 2.8572 11.851 3.73075C11.851 4.6043 11.1428 5.31246 10.2693 5.31246C9.39571 5.31246 8.68756 4.6043 8.68756 3.73075ZM4.59666 3.49889C3.17878 3.12158 1.84833 3.82022 0.667844 4.90303C0.430396 5.12084 0.479986 5.50181 0.755985 5.66808L2.66123 6.81582L2.66343 6.81211C2.93827 6.35188 3.24548 5.81876 3.55674 5.27864L3.55677 5.27859L3.55682 5.27849L3.55683 5.27848L3.55683 5.27847L3.55688 5.2784C3.91229 4.66164 4.27296 4.03577 4.59666 3.49889ZM7.1842 11.3387L8.33195 13.2439C8.49822 13.5199 8.8792 13.5695 9.097 13.3321C10.1802 12.1512 10.8789 10.8203 10.5008 9.40186C9.97943 9.71606 9.4312 10.0324 8.88814 10.3452L8.80528 10.3929C8.25674 10.7088 7.71389 11.0214 7.18934 11.3356L7.1842 11.3387ZM2.62213 9.3429C2.89067 9.33816 3.15741 9.38756 3.40645 9.48815C3.65548 9.58874 3.88171 9.73846 4.07162 9.92838C4.26154 10.1183 4.41126 10.3445 4.51185 10.5936C4.61244 10.8426 4.66184 11.1093 4.6571 11.3779C4.65236 11.6464 4.59358 11.9112 4.48427 12.1566C4.37552 12.4007 4.21897 12.6205 4.02387 12.803C3.8021 13.0154 3.45508 13.1815 3.13336 13.3093C2.79033 13.4457 2.39891 13.5675 2.03346 13.6672C1.66679 13.7673 1.31658 13.8478 1.05211 13.9003C0.920775 13.9263 0.804921 13.9466 0.716121 13.9587C0.673494 13.9645 0.626411 13.9699 0.582954 13.9718C0.563254 13.9727 0.527646 13.9738 0.486928 13.9699C0.46741 13.968 0.429623 13.9635 0.384686 13.9501C0.355024 13.9412 0.239798 13.9061 0.143803 13.7941C0.061582 13.6982 0.0391976 13.5981 0.0338051 13.574L0.0337069 13.5735C0.0250625 13.5349 0.0225181 13.5027 0.0215181 13.4853C0.0194436 13.4493 0.0210121 13.4174 0.0222396 13.3984C0.0249024 13.3573 0.0305751 13.312 0.0367465 13.2696C0.0495202 13.1817 0.070273 13.0668 0.0968572 12.9358C0.150328 12.6723 0.23151 12.3237 0.332091 11.9586C0.432321 11.5947 0.554395 11.2051 0.690873 10.8635C0.818955 10.5429 0.985026 10.1974 1.19702 9.97612C1.37956 9.78103 1.59935 9.62448 1.84342 9.51573C2.08875 9.40642 2.35359 9.34764 2.62213 9.3429Z" clip-rule="evenodd"></path></g></svg>